<mxfile host="app.diagrams.net" modified="2023-06-11T19:39:09.377Z" agent="Mozilla/5.0 (Windows NT 10.0; Win64; x64; rv:109.0) Gecko/20100101 Firefox/114.0" etag="X7xwGfB84e_ytOncqpHI" version="21.3.8">
  <diagram id="uTNh9R30vFDkxg3qyr1_" name="PÃ¡gina-1">
    <mxGraphModel dx="3268" dy="3164" grid="1" gridSize="10" guides="1" tooltips="1" connect="1" arrows="1" fold="1" page="0" pageScale="1" pageWidth="827" pageHeight="1169" background="none" math="0" shadow="0">
      <root>
        <mxCell id="0" />
        <mxCell id="1" parent="0" />
        <mxCell id="node4" value="&lt;p style=&quot;margin:0px;margin-top:4px;text-align:center;&quot;&gt;&lt;b&gt;Archivo&lt;/b&gt;&lt;/p&gt;&lt;hr size=&quot;1&quot;/&gt;&lt;p style=&quot;margin:0 0 0 4px;line-height:1.6;&quot;&gt;+ Archivo(String): &lt;/p&gt;&lt;hr size=&quot;1&quot;/&gt;&lt;p style=&quot;margin:0 0 0 4px;line-height:1.6;&quot;&gt;- nombre: String&lt;/p&gt;&lt;hr size=&quot;1&quot;/&gt;&lt;p style=&quot;margin:0 0 0 4px;line-height:1.6;&quot;&gt;+ cargarArchivoPromociones(Map&amp;lt;String, Atraccion&amp;gt;, List&amp;lt;Recomendacion&amp;gt;): void&lt;br/&gt;+ generarArchivoResumenUsuario(Usuario): void&lt;br/&gt;+ cargarArchivoUsuarios(): Queue&amp;lt;Usuario&amp;gt;&lt;br/&gt;+ cargarArchivoAtracciones(Map&amp;lt;String, Atraccion&amp;gt;, List&amp;lt;Recomendacion&amp;gt;): void&lt;/p&gt;" style="verticalAlign=top;align=left;overflow=fill;fontSize=14;fontFamily=Helvetica;html=1;rounded=0;shadow=0;comic=0;labelBackgroundColor=none;strokeWidth=1;" parent="1" vertex="1">
          <mxGeometry x="-213" y="-1400" width="530" height="221" as="geometry" />
        </mxCell>
        <mxCell id="-eizAURnrcEfRXgATK65-2" style="edgeStyle=orthogonalEdgeStyle;rounded=0;orthogonalLoop=1;jettySize=auto;html=1;entryX=0.5;entryY=1;entryDx=0;entryDy=0;" parent="1" source="node3" target="node2" edge="1">
          <mxGeometry relative="1" as="geometry">
            <mxPoint x="830" y="-300" as="targetPoint" />
            <Array as="points">
              <mxPoint x="560" y="-280" />
              <mxPoint x="812" y="-280" />
            </Array>
          </mxGeometry>
        </mxCell>
        <mxCell id="node3" value="&lt;p style=&quot;margin:0px;margin-top:4px;text-align:center;&quot;&gt;&lt;b&gt;Atraccion&lt;/b&gt;&lt;/p&gt;&lt;hr size=&quot;1&quot;/&gt;&lt;p style=&quot;margin:0 0 0 4px;line-height:1.6;&quot;&gt;+ Atraccion(String, double, double, int, TipoDeAtraccion): &lt;/p&gt;&lt;hr size=&quot;1&quot;/&gt;&lt;p style=&quot;margin:0 0 0 4px;line-height:1.6;&quot;&gt;- cupo: int&lt;/p&gt;&lt;hr size=&quot;1&quot;/&gt;&lt;p style=&quot;margin:0 0 0 4px;line-height:1.6;&quot;&gt;+ toString(): String&lt;br/&gt;+ decrementarCupo(): void&lt;br/&gt;+ recomendacionIncluyeAtraccionComprada(Usuario): boolean&lt;br/&gt;+ equals(Object): boolean&lt;br/&gt;+ getCupo(): int&lt;br/&gt;+ esPromocion(): boolean&lt;br/&gt;+ hashCode(): int&lt;br/&gt;+ agregarRecomendacionAItinierario(Itinerario): void&lt;/p&gt;" style="verticalAlign=top;align=left;overflow=fill;fontSize=14;fontFamily=Helvetica;html=1;rounded=0;shadow=0;comic=0;labelBackgroundColor=none;strokeWidth=1;" parent="1" vertex="1">
          <mxGeometry x="370" y="-240" width="380" height="300" as="geometry" />
        </mxCell>
        <mxCell id="node1" value="&lt;p style=&quot;margin:0px;margin-top:4px;text-align:center;&quot;&gt;&lt;b&gt;ComparadorRecomendaciones&lt;/b&gt;&lt;/p&gt;&lt;hr size=&quot;1&quot;/&gt;&lt;p style=&quot;margin:0 0 0 4px;line-height:1.6;&quot;&gt;+ ComparadorRecomendaciones(TipoDeAtraccion): &lt;/p&gt;&lt;hr size=&quot;1&quot;/&gt;&lt;p style=&quot;margin:0 0 0 4px;line-height:1.6;&quot;&gt;- TipoOrden: TipoDeAtraccion&lt;/p&gt;&lt;hr size=&quot;1&quot;/&gt;&lt;p style=&quot;margin:0 0 0 4px;line-height:1.6;&quot;&gt;+ compare(Recomendacion, Recomendacion): int&lt;/p&gt;" style="verticalAlign=top;align=left;overflow=fill;fontSize=14;fontFamily=Helvetica;html=1;rounded=0;shadow=0;comic=0;labelBackgroundColor=none;strokeWidth=1;" parent="1" vertex="1">
          <mxGeometry x="675" y="-1400" width="345" height="140" as="geometry" />
        </mxCell>
        <mxCell id="node9" value="&lt;p style=&quot;margin:0px;margin-top:4px;text-align:center;&quot;&gt;&lt;b&gt;Main&lt;/b&gt;&lt;/p&gt;&lt;hr size=&quot;1&quot;/&gt;&lt;p style=&quot;margin:0 0 0 4px;line-height:1.6;&quot;&gt;+ Main(): &lt;/p&gt;&lt;hr size=&quot;1&quot;/&gt;&lt;p style=&quot;margin:0 0 0 4px;line-height:1.6;&quot;&gt;+ main(String[]): void&lt;/p&gt;" style="verticalAlign=top;align=left;overflow=fill;fontSize=14;fontFamily=Helvetica;html=1;rounded=0;shadow=0;comic=0;labelBackgroundColor=none;strokeWidth=1;" parent="1" vertex="1">
          <mxGeometry x="768.5" y="-1250" width="158" height="100" as="geometry" />
        </mxCell>
        <mxCell id="-eizAURnrcEfRXgATK65-1" style="edgeStyle=orthogonalEdgeStyle;rounded=0;orthogonalLoop=1;jettySize=auto;html=1;entryX=0.5;entryY=1;entryDx=0;entryDy=0;" parent="1" source="node5" target="node2" edge="1">
          <mxGeometry relative="1" as="geometry">
            <mxPoint x="830" y="-300" as="targetPoint" />
            <Array as="points">
              <mxPoint x="1031" y="-280" />
              <mxPoint x="812" y="-280" />
            </Array>
          </mxGeometry>
        </mxCell>
        <mxCell id="node5" value="&lt;p style=&quot;margin:0px;margin-top:4px;text-align:center;&quot;&gt;&lt;b&gt;Promocion&lt;/b&gt;&lt;/p&gt;&lt;hr size=&quot;1&quot;/&gt;&lt;p style=&quot;margin:0 0 0 4px;line-height:1.6;&quot;&gt;+ Promocion(String, List&amp;lt;Atraccion&amp;gt;): &lt;/p&gt;&lt;hr size=&quot;1&quot;/&gt;&lt;p style=&quot;margin:0 0 0 4px;line-height:1.6;&quot;&gt;# atraccionesIncluidas: List&amp;lt;Atraccion&amp;gt;&lt;/p&gt;&lt;hr size=&quot;1&quot;/&gt;&lt;p style=&quot;margin:0 0 0 4px;line-height:1.6;&quot;&gt;+ getCupo(): int&lt;br/&gt;+ decrementarCupo(): void&lt;br/&gt;+ toNombre(): List&amp;lt;String&amp;gt;&lt;br/&gt;+ esPromocion(): boolean&lt;br/&gt;+ hashCode(): int&lt;br/&gt;+ getAtraccionesIncluidas(): List&amp;lt;Atraccion&amp;gt;&lt;br/&gt;+ equals(Object): boolean&lt;br/&gt;+ recomendacionIncluyeAtraccionComprada(Usuario): boolean&lt;br/&gt;+ agregarRecomendacionAItinierario(Itinerario): void&lt;br/&gt;+ toString(): String&lt;/p&gt;" style="verticalAlign=top;align=left;overflow=fill;fontSize=14;fontFamily=Helvetica;html=1;rounded=0;shadow=0;comic=0;labelBackgroundColor=none;strokeWidth=1;" parent="1" vertex="1">
          <mxGeometry x="841" y="-240" width="409" height="340" as="geometry" />
        </mxCell>
        <mxCell id="-eizAURnrcEfRXgATK65-6" style="edgeStyle=orthogonalEdgeStyle;rounded=0;orthogonalLoop=1;jettySize=auto;html=1;entryX=0.5;entryY=1;entryDx=0;entryDy=0;" parent="1" source="node12" target="node5" edge="1">
          <mxGeometry relative="1" as="geometry">
            <mxPoint x="1030" y="60" as="targetPoint" />
            <Array as="points">
              <mxPoint x="1445" y="130" />
              <mxPoint x="1045" y="130" />
            </Array>
          </mxGeometry>
        </mxCell>
        <mxCell id="node12" value="&lt;p style=&quot;margin:0px;margin-top:4px;text-align:center;&quot;&gt;&lt;b&gt;PromocionesAbsolutas&lt;/b&gt;&lt;/p&gt;&lt;hr size=&quot;1&quot;/&gt;&lt;p style=&quot;margin:0 0 0 4px;line-height:1.6;&quot;&gt;+ PromocionesAbsolutas(String, List&amp;lt;Atraccion&amp;gt;, double): &lt;/p&gt;&lt;hr size=&quot;1&quot;/&gt;&lt;p style=&quot;margin:0 0 0 4px;line-height:1.6;&quot;&gt;+ toString(): String&lt;br/&gt;+ hashCode(): int&lt;br/&gt;+ equals(Object): boolean&lt;/p&gt;" style="verticalAlign=top;align=left;overflow=fill;fontSize=14;fontFamily=Helvetica;html=1;rounded=0;shadow=0;comic=0;labelBackgroundColor=none;strokeWidth=1;" parent="1" vertex="1">
          <mxGeometry x="1260" y="170" width="370" height="162" as="geometry" />
        </mxCell>
        <mxCell id="-eizAURnrcEfRXgATK65-5" style="edgeStyle=orthogonalEdgeStyle;rounded=0;orthogonalLoop=1;jettySize=auto;html=1;entryX=0.5;entryY=1;entryDx=0;entryDy=0;exitX=0.5;exitY=0;exitDx=0;exitDy=0;" parent="1" source="node6" target="node5" edge="1">
          <mxGeometry relative="1" as="geometry">
            <Array as="points">
              <mxPoint x="655" y="130" />
              <mxPoint x="1045" y="130" />
            </Array>
          </mxGeometry>
        </mxCell>
        <mxCell id="node6" value="&lt;p style=&quot;margin:0px;margin-top:4px;text-align:center;&quot;&gt;&lt;b&gt;PromocionesAxB&lt;/b&gt;&lt;/p&gt;&lt;hr size=&quot;1&quot;/&gt;&lt;p style=&quot;margin:0 0 0 4px;line-height:1.6;&quot;&gt;+ PromocionesAxB(String, List&amp;lt;Atraccion&amp;gt;, Atraccion): &lt;/p&gt;&lt;hr size=&quot;1&quot;/&gt;&lt;p style=&quot;margin:0 0 0 4px;line-height:1.6;&quot;&gt;- atraccionGratis: Atraccion&lt;/p&gt;&lt;hr size=&quot;1&quot;/&gt;&lt;p style=&quot;margin:0 0 0 4px;line-height:1.6;&quot;&gt;+ toString(): String&lt;br/&gt;+ equals(Object): boolean&lt;br/&gt;+ hashCode(): int&lt;/p&gt;" style="verticalAlign=top;align=left;overflow=fill;fontSize=14;fontFamily=Helvetica;html=1;rounded=0;shadow=0;comic=0;labelBackgroundColor=none;strokeWidth=1;" parent="1" vertex="1">
          <mxGeometry x="480" y="170" width="350" height="180" as="geometry" />
        </mxCell>
        <mxCell id="-eizAURnrcEfRXgATK65-3" value="" style="edgeStyle=orthogonalEdgeStyle;rounded=0;orthogonalLoop=1;jettySize=auto;html=1;" parent="1" source="node10" target="node5" edge="1">
          <mxGeometry relative="1" as="geometry" />
        </mxCell>
        <mxCell id="node10" value="&lt;p style=&quot;margin:0px;margin-top:4px;text-align:center;&quot;&gt;&lt;b&gt;PromocionesPorcentual&lt;/b&gt;&lt;/p&gt;&lt;hr size=&quot;1&quot;/&gt;&lt;p style=&quot;margin:0 0 0 4px;line-height:1.6;&quot;&gt;+ PromocionesPorcentual(String, List&amp;lt;Atraccion&amp;gt;, double): &lt;/p&gt;&lt;hr size=&quot;1&quot;/&gt;&lt;p style=&quot;margin:0 0 0 4px;line-height:1.6;&quot;&gt;- porcentajeDescuento: double&lt;/p&gt;&lt;hr size=&quot;1&quot;/&gt;&lt;p style=&quot;margin:0 0 0 4px;line-height:1.6;&quot;&gt;+ hashCode(): int&lt;br/&gt;+ equals(Object): boolean&lt;br/&gt;+ toString(): String&lt;/p&gt;" style="verticalAlign=top;align=left;overflow=fill;fontSize=14;fontFamily=Helvetica;html=1;rounded=0;shadow=0;comic=0;labelBackgroundColor=none;strokeWidth=1;" parent="1" vertex="1">
          <mxGeometry x="858" y="170" width="375" height="180" as="geometry" />
        </mxCell>
        <mxCell id="node2" value="&lt;p style=&quot;margin:0px;margin-top:4px;text-align:center;&quot;&gt;&lt;b&gt;Recomendacion&lt;/b&gt;&lt;/p&gt;&lt;hr size=&quot;1&quot;/&gt;&lt;p style=&quot;margin:0 0 0 4px;line-height:1.6;&quot;&gt;+ Recomendacion(String, double, double, TipoDeAtraccion): &lt;/p&gt;&lt;hr size=&quot;1&quot;/&gt;&lt;p style=&quot;margin:0 0 0 4px;line-height:1.6;&quot;&gt;# nombre: String&lt;br/&gt;# duracion: double&lt;br/&gt;# tipoDeAtraccion: TipoDeAtraccion&lt;br/&gt;# precio: double&lt;/p&gt;&lt;hr size=&quot;1&quot;/&gt;&lt;p style=&quot;margin:0 0 0 4px;line-height:1.6;&quot;&gt;+ getTipoDeAtraccion(): TipoDeAtraccion&lt;br/&gt;+ getNombre(): String&lt;br/&gt;+ recomendacionIncluyeAtraccionComprada(Usuario): boolean&lt;br/&gt;+ equals(Object): boolean&lt;br/&gt;+ getDuracion(): double&lt;br/&gt;+ getPrecio(): double&lt;br/&gt;+ getCupo(): int&lt;br/&gt;+ decrementarCupo(): void&lt;br/&gt;+ esPromocion(): boolean&lt;br/&gt;+ agregarRecomendacionAItinierario(Itinerario): void&lt;br/&gt;+ hashCode(): int&lt;/p&gt;" style="verticalAlign=top;align=left;overflow=fill;fontSize=14;fontFamily=Helvetica;html=1;rounded=0;shadow=0;comic=0;labelBackgroundColor=none;strokeWidth=1;" parent="1" vertex="1">
          <mxGeometry x="622" y="-740" width="380" height="430" as="geometry" />
        </mxCell>
        <mxCell id="node8" value="&lt;p style=&quot;margin:0px;margin-top:4px;text-align:center;&quot;&gt;&lt;b&gt;Recomendador&lt;/b&gt;&lt;/p&gt;&lt;hr size=&quot;1&quot;/&gt;&lt;p style=&quot;margin:0 0 0 4px;line-height:1.6;&quot;&gt;+ Recomendador(): &lt;/p&gt;&lt;hr size=&quot;1&quot;/&gt;&lt;p style=&quot;margin:0 0 0 4px;line-height:1.6;&quot;&gt;~ listaRecomendaciones: List&amp;lt;Recomendacion&amp;gt;&lt;br/&gt;~ colaDeUsuarios: Queue&amp;lt;Usuario&amp;gt;&lt;/p&gt;&lt;hr size=&quot;1&quot;/&gt;&lt;p style=&quot;margin:0 0 0 4px;line-height:1.6;&quot;&gt;- imprimirResumenUsuario(Usuario): void&lt;br/&gt;- cargarPromociones(HashMap&amp;lt;String, Atraccion&amp;gt;): void&lt;br/&gt;- cargarUsuarios(): void&lt;br/&gt;+ realizarSugerencia(): void&lt;br/&gt;- ofrecerRecomendacion(Usuario, Recomendacion, Scanner): boolean&lt;br/&gt;- validarRecomendacion(Scanner): boolean&lt;br/&gt;- cargarAtracciones(HashMap&amp;lt;String, Atraccion&amp;gt;): void&lt;/p&gt;" style="verticalAlign=top;align=left;overflow=fill;fontSize=14;fontFamily=Helvetica;html=1;rounded=0;shadow=0;comic=0;labelBackgroundColor=none;strokeWidth=1;" parent="1" vertex="1">
          <mxGeometry x="290" y="-1100" width="395" height="300" as="geometry" />
        </mxCell>
        <mxCell id="node0" value="&lt;p style=&quot;margin:0px;margin-top:4px;text-align:center;&quot;&gt;&lt;i&gt;&amp;lt;&amp;lt;enumeration&amp;gt;&amp;gt;&lt;/i&gt;&lt;br/&gt;&lt;b&gt;TipoDeAtraccion&lt;/b&gt;&lt;/p&gt;&lt;hr size=&quot;1&quot;/&gt;&lt;p style=&quot;margin:0 0 0 4px;line-height:1.6;&quot;&gt;+ TipoDeAtraccion(): &lt;/p&gt;&lt;hr size=&quot;1&quot;/&gt;&lt;p style=&quot;margin:0 0 0 4px;line-height:1.6;&quot;&gt;+ PAISAJES: &lt;br/&gt;+ AVENTURA: &lt;br/&gt;+ DEGUSTACION: &lt;/p&gt;&lt;hr size=&quot;1&quot;/&gt;&lt;p style=&quot;margin:0 0 0 4px;line-height:1.6;&quot;&gt;+ valueOf(String): TipoDeAtraccion&lt;br/&gt;+ values(): TipoDeAtraccion[]&lt;/p&gt;" style="verticalAlign=top;align=left;overflow=fill;fontSize=14;fontFamily=Helvetica;html=1;rounded=0;shadow=0;comic=0;labelBackgroundColor=none;strokeWidth=1;" parent="1" vertex="1">
          <mxGeometry x="372.5" y="-1404.5" width="230" height="230" as="geometry" />
        </mxCell>
        <mxCell id="node7" value="&lt;p style=&quot;margin:0px;margin-top:4px;text-align:center;&quot;&gt;&lt;b&gt;Usuario&lt;/b&gt;&lt;/p&gt;&lt;hr size=&quot;1&quot;&gt;&lt;p style=&quot;margin:0 0 0 4px;line-height:1.6;&quot;&gt;+ Usuario(String, double, double, TipoDeAtraccion): &lt;/p&gt;&lt;hr size=&quot;1&quot;&gt;&lt;p style=&quot;margin:0 0 0 4px;line-height:1.6;&quot;&gt;- nombre: String&lt;br&gt;- tipoDeAtraccionPreferida: TipoDeAtraccion&lt;br&gt;- presupuesto: double&lt;br&gt;- presupuestoInicial: double&lt;br&gt;- itinerario: HashMap&amp;lt;String, Atraccion&amp;gt;&lt;br&gt;- tiempoInicial: double&lt;br&gt;- tiempoDisponible: double&lt;/p&gt;&lt;hr size=&quot;1&quot;&gt;&lt;p style=&quot;margin:0 0 0 4px;line-height:1.6;&quot;&gt;+ comprarRecomendacion(Recomendacion): void&lt;br&gt;+ getTiempoInicial(): double&lt;br&gt;+ getPresupuesto(): double&lt;br&gt;+ getTiempoDisponible(): double&lt;br&gt;+ estado(): boolean&lt;br&gt;+ getItinerario(): HashMap&amp;lt;String, Atraccion&amp;gt;&lt;br&gt;+ getNombre(): String&lt;br&gt;+ getTipoDeAtraccionPreferida(): TipoDeAtraccion&lt;br&gt;+ getPresupuestoInicial(): double&lt;/p&gt;" style="verticalAlign=top;align=left;overflow=fill;fontSize=14;fontFamily=Helvetica;html=1;rounded=0;shadow=0;comic=0;labelBackgroundColor=none;strokeWidth=1;" parent="1" vertex="1">
          <mxGeometry x="6" y="-740" width="334" height="455" as="geometry" />
        </mxCell>
        <mxCell id="-JzUjSOINS1GA7s7eUDL-4" value="" style="group" parent="1" vertex="1" connectable="0">
          <mxGeometry x="745" y="-113" width="90" height="31" as="geometry" />
        </mxCell>
        <mxCell id="-eizAURnrcEfRXgATK65-7" value="" style="edgeStyle=orthogonalEdgeStyle;rounded=0;orthogonalLoop=1;jettySize=auto;html=1;endArrow=diamondThin;endFill=0;endSize=25;" parent="-JzUjSOINS1GA7s7eUDL-4" source="node3" target="node5" edge="1">
          <mxGeometry relative="1" as="geometry">
            <Array as="points">
              <mxPoint x="65" />
              <mxPoint x="65" />
            </Array>
          </mxGeometry>
        </mxCell>
        <mxCell id="-JzUjSOINS1GA7s7eUDL-3" value="" style="group" parent="-JzUjSOINS1GA7s7eUDL-4" vertex="1" connectable="0">
          <mxGeometry y="1" width="90" height="30" as="geometry" />
        </mxCell>
        <mxCell id="-JzUjSOINS1GA7s7eUDL-1" value="&lt;font style=&quot;font-size: 14px;&quot;&gt;1&lt;/font&gt;" style="text;html=1;align=center;verticalAlign=middle;resizable=0;points=[];autosize=1;strokeColor=none;fillColor=none;" parent="-JzUjSOINS1GA7s7eUDL-3" vertex="1">
          <mxGeometry x="60" width="30" height="30" as="geometry" />
        </mxCell>
        <mxCell id="-JzUjSOINS1GA7s7eUDL-2" value="&lt;font style=&quot;font-size: 14px;&quot;&gt;*&lt;/font&gt;" style="text;html=1;align=center;verticalAlign=middle;resizable=0;points=[];autosize=1;strokeColor=none;fillColor=none;container=1;" parent="-JzUjSOINS1GA7s7eUDL-3" vertex="1">
          <mxGeometry width="30" height="30" as="geometry" />
        </mxCell>
        <mxCell id="-JzUjSOINS1GA7s7eUDL-16" value="" style="group" parent="1" vertex="1" connectable="0">
          <mxGeometry x="170" y="-960" width="110" height="215" as="geometry" />
        </mxCell>
        <mxCell id="-JzUjSOINS1GA7s7eUDL-9" style="edgeStyle=orthogonalEdgeStyle;rounded=0;orthogonalLoop=1;jettySize=auto;html=1;entryX=0;entryY=0.5;entryDx=0;entryDy=0;endArrow=diamondThin;endFill=0;endSize=25;" parent="-JzUjSOINS1GA7s7eUDL-16" source="node7" target="node8" edge="1">
          <mxGeometry relative="1" as="geometry" />
        </mxCell>
        <mxCell id="-JzUjSOINS1GA7s7eUDL-14" value="&lt;div&gt;&lt;br&gt;&lt;/div&gt;&lt;div&gt;&lt;font style=&quot;font-size: 14px;&quot;&gt;1&lt;/font&gt;&lt;br&gt;&lt;/div&gt;" style="text;html=1;align=center;verticalAlign=middle;resizable=0;points=[];autosize=1;strokeColor=none;fillColor=none;" parent="-JzUjSOINS1GA7s7eUDL-16" vertex="1">
          <mxGeometry x="80" width="30" height="40" as="geometry" />
        </mxCell>
        <mxCell id="-JzUjSOINS1GA7s7eUDL-15" value="&lt;font style=&quot;font-size: 14px;&quot;&gt;*&lt;/font&gt;" style="text;html=1;align=center;verticalAlign=middle;resizable=0;points=[];autosize=1;strokeColor=none;fillColor=none;" parent="-JzUjSOINS1GA7s7eUDL-16" vertex="1">
          <mxGeometry y="185" width="30" height="30" as="geometry" />
        </mxCell>
        <mxCell id="-JzUjSOINS1GA7s7eUDL-17" value="" style="group" parent="1" vertex="1" connectable="0">
          <mxGeometry x="710" y="-960" width="100" height="220" as="geometry" />
        </mxCell>
        <mxCell id="-JzUjSOINS1GA7s7eUDL-8" style="edgeStyle=orthogonalEdgeStyle;rounded=0;orthogonalLoop=1;jettySize=auto;html=1;entryX=1;entryY=0.5;entryDx=0;entryDy=0;endArrow=diamondThin;endFill=0;endSize=25;" parent="-JzUjSOINS1GA7s7eUDL-17" source="node2" target="node8" edge="1">
          <mxGeometry relative="1" as="geometry" />
        </mxCell>
        <mxCell id="-JzUjSOINS1GA7s7eUDL-12" value="&lt;div&gt;&lt;br&gt;&lt;/div&gt;&lt;div&gt;&lt;font style=&quot;font-size: 14px;&quot;&gt;1&lt;/font&gt;&lt;br&gt;&lt;/div&gt;" style="text;html=1;align=center;verticalAlign=middle;resizable=0;points=[];autosize=1;strokeColor=none;fillColor=none;" parent="-JzUjSOINS1GA7s7eUDL-17" vertex="1">
          <mxGeometry width="30" height="40" as="geometry" />
        </mxCell>
        <mxCell id="-JzUjSOINS1GA7s7eUDL-13" value="&lt;font style=&quot;font-size: 14px;&quot;&gt;*&lt;/font&gt;" style="text;html=1;align=center;verticalAlign=middle;resizable=0;points=[];autosize=1;strokeColor=none;fillColor=none;" parent="-JzUjSOINS1GA7s7eUDL-17" vertex="1">
          <mxGeometry x="70" y="190" width="30" height="30" as="geometry" />
        </mxCell>
      </root>
    </mxGraphModel>
  </diagram>
</mxfile>
